<svg 
 xmlns="http://www.w3.org/2000/svg"
 xmlns:xlink="http://www.w3.org/1999/xlink"
 width="23px" height="20px">
<path fill-rule="evenodd"  fill="rgb(255, 255, 255)"
 d="M20.125,12.857 C18.537,12.857 17.250,11.578 17.250,10.000 C17.250,8.422 18.537,7.143 20.125,7.143 C21.713,7.143 23.000,8.422 23.000,10.000 C23.000,11.578 21.713,12.857 20.125,12.857 ZM20.125,8.571 C19.331,8.571 18.688,9.211 18.688,10.000 C18.688,10.789 19.331,11.429 20.125,11.429 C20.919,11.429 21.563,10.789 21.563,10.000 C21.563,9.211 20.919,8.571 20.125,8.571 ZM20.125,5.714 C18.537,5.714 17.250,4.435 17.250,2.857 C17.250,1.279 18.537,0.000 20.125,0.000 C21.713,0.000 23.000,1.279 23.000,2.857 C23.000,4.435 21.713,5.714 20.125,5.714 ZM20.125,1.429 C19.331,1.429 18.688,2.068 18.688,2.857 C18.688,3.646 19.331,4.286 20.125,4.286 C20.919,4.286 21.563,3.646 21.563,2.857 C21.563,2.068 20.919,1.429 20.125,1.429 ZM11.500,20.000 C9.912,20.000 8.625,18.721 8.625,17.143 C8.625,15.565 9.912,14.286 11.500,14.286 C13.088,14.286 14.375,15.565 14.375,17.143 C14.375,18.721 13.088,20.000 11.500,20.000 ZM11.500,15.714 C10.706,15.714 10.063,16.354 10.063,17.143 C10.063,17.932 10.706,18.571 11.500,18.571 C12.294,18.571 12.938,17.932 12.938,17.143 C12.938,16.354 12.294,15.714 11.500,15.714 ZM11.500,12.857 C9.912,12.857 8.625,11.578 8.625,10.000 C8.625,8.422 9.912,7.143 11.500,7.143 C13.088,7.143 14.375,8.422 14.375,10.000 C14.375,11.578 13.088,12.857 11.500,12.857 ZM11.500,8.571 C10.706,8.571 10.063,9.211 10.063,10.000 C10.063,10.789 10.706,11.429 11.500,11.429 C12.294,11.429 12.938,10.789 12.938,10.000 C12.938,9.211 12.294,8.571 11.500,8.571 ZM11.500,5.714 C9.912,5.714 8.625,4.435 8.625,2.857 C8.625,1.279 9.912,0.000 11.500,0.000 C13.088,0.000 14.375,1.279 14.375,2.857 C14.375,4.435 13.088,5.714 11.500,5.714 ZM11.500,1.429 C10.706,1.429 10.063,2.068 10.063,2.857 C10.063,3.646 10.706,4.286 11.500,4.286 C12.294,4.286 12.938,3.646 12.938,2.857 C12.938,2.068 12.294,1.429 11.500,1.429 ZM2.875,20.000 C1.287,20.000 -0.000,18.721 -0.000,17.143 C-0.000,15.565 1.287,14.286 2.875,14.286 C4.463,14.286 5.750,15.565 5.750,17.143 C5.750,18.721 4.463,20.000 2.875,20.000 ZM2.875,15.714 C2.081,15.714 1.437,16.354 1.437,17.143 C1.437,17.932 2.081,18.571 2.875,18.571 C3.669,18.571 4.312,17.932 4.312,17.143 C4.312,16.354 3.669,15.714 2.875,15.714 ZM2.875,12.857 C1.287,12.857 -0.000,11.578 -0.000,10.000 C-0.000,8.422 1.287,7.143 2.875,7.143 C4.463,7.143 5.750,8.422 5.750,10.000 C5.750,11.578 4.463,12.857 2.875,12.857 ZM2.875,8.571 C2.081,8.571 1.437,9.211 1.437,10.000 C1.437,10.789 2.081,11.429 2.875,11.429 C3.669,11.429 4.312,10.789 4.312,10.000 C4.312,9.211 3.669,8.571 2.875,8.571 ZM2.875,5.714 C1.287,5.714 -0.000,4.435 -0.000,2.857 C-0.000,1.279 1.287,0.000 2.875,0.000 C4.463,0.000 5.750,1.279 5.750,2.857 C5.750,4.435 4.463,5.714 2.875,5.714 ZM2.875,1.429 C2.081,1.429 1.437,2.068 1.437,2.857 C1.437,3.646 2.081,4.286 2.875,4.286 C3.669,4.286 4.312,3.646 4.312,2.857 C4.312,2.068 3.669,1.429 2.875,1.429 ZM20.125,14.286 C21.713,14.286 23.000,15.565 23.000,17.143 C23.000,18.721 21.713,20.000 20.125,20.000 C18.537,20.000 17.250,18.721 17.250,17.143 C17.250,15.565 18.537,14.286 20.125,14.286 ZM20.125,18.571 C20.919,18.571 21.563,17.932 21.563,17.143 C21.563,16.354 20.919,15.714 20.125,15.714 C19.331,15.714 18.688,16.354 18.688,17.143 C18.688,17.932 19.331,18.571 20.125,18.571 Z"/>
</svg>