<svg 
 xmlns="http://www.w3.org/2000/svg"
 xmlns:xlink="http://www.w3.org/1999/xlink"
 width="20px" height="20px">
<path fill-rule="evenodd"  fill="#000"
 d="M19.805,19.808 C19.552,20.057 19.143,20.057 18.890,19.808 L13.707,14.708 C12.261,15.863 10.420,16.557 8.412,16.557 C3.766,16.557 -0.000,12.851 -0.000,8.279 C-0.000,3.706 3.766,0.000 8.412,0.000 C13.058,0.000 16.825,3.706 16.825,8.279 C16.825,10.416 15.994,12.359 14.643,13.827 L19.805,18.908 C20.058,19.157 20.058,19.560 19.805,19.808 ZM8.412,1.274 C4.481,1.274 1.294,4.410 1.294,8.279 C1.294,12.147 4.481,15.284 8.412,15.284 C12.344,15.284 15.531,12.147 15.531,8.279 C15.531,4.410 12.344,1.274 8.412,1.274 Z"/>
</svg>